<?xml version="1.0" encoding="UTF-8" standalone="no"?>
<!DOCTYPE svg PUBLIC "-//W3C//DTD SVG 1.1//EN" "http://www.w3.org/Graphics/SVG/1.1/DTD/svg11.dtd">
<!-- Generated by graphviz version 2.40.1 (20161225.0304)
 -->
<!-- Title: G Pages: 1 -->
<svg width="1907pt" height="1052pt" viewBox="0.00 0.00 1907.30 1052.00" xmlns="http://www.w3.org/2000/svg" xmlns:xlink="http://www.w3.org/1999/xlink">
<g id="graph0" class="graph" transform="scale(1 1) rotate(0) translate(4 1048)">
<title>G</title>
<polygon fill="#ffffff" stroke="transparent" points="-4,4 -4,-1048 1903.3046,-1048 1903.3046,4 -4,4"/>
<!-- dj -->
<g id="node1" class="node">
<title>dj</title>
<ellipse fill="none" stroke="#000000" cx="320.3046" cy="-882" rx="27" ry="18"/>
<text text-anchor="middle" x="320.3046" y="-877.8" font-family="Times,serif" font-size="14.00" fill="#000000">dj</text>
</g>
<!-- fj -->
<g id="node2" class="node">
<title>fj</title>
<ellipse fill="none" stroke="#000000" cx="265.3046" cy="-810" rx="27" ry="18"/>
<text text-anchor="middle" x="265.3046" y="-805.8" font-family="Times,serif" font-size="14.00" fill="#000000">fj</text>
</g>
<!-- dj&#45;&gt;fj -->
<g id="edge1" class="edge">
<title>dj-&gt;fj</title>
<path fill="none" stroke="#000000" d="M307.8243,-865.6621C300.7922,-856.4564 291.87,-844.7764 284.0164,-834.4953"/>
<polygon fill="#000000" stroke="#000000" points="286.5874,-832.0953 277.7356,-826.2733 281.0247,-836.3446 286.5874,-832.0953"/>
</g>
<!-- jn -->
<g id="node3" class="node">
<title>jn</title>
<ellipse fill="#d3d3d3" stroke="#000000" cx="228.3046" cy="-666" rx="27" ry="18"/>
<text text-anchor="middle" x="228.3046" y="-661.8" font-family="Times,serif" font-size="14.00" fill="#000000">jn</text>
</g>
<!-- dj&#45;&gt;jn -->
<g id="edge2" class="edge">
<title>dj-&gt;jn</title>
<path fill="none" stroke="#000000" d="M322.597,-864.0339C325.71,-832.5368 328.145,-766.3039 301.3046,-720 291.7462,-703.5101 274.9332,-690.5511 259.8503,-681.466"/>
<polygon fill="#000000" stroke="#000000" points="261.1882,-678.2011 250.763,-676.3129 257.7352,-684.2902 261.1882,-678.2011"/>
</g>
<!-- fj&#45;&gt;jn -->
<g id="edge27" class="edge">
<title>fj-&gt;jn</title>
<path fill="none" stroke="#000000" d="M251.2373,-794.2674C243.1277,-784.1234 233.6936,-770.2106 229.3046,-756 223.1277,-736.0001 223.1413,-712.2879 224.5582,-694.2246"/>
<polygon fill="#000000" stroke="#000000" points="228.063,-694.3447 225.5485,-684.0526 221.0959,-693.6664 228.063,-694.3447"/>
</g>
<!-- sl -->
<g id="node30" class="node">
<title>sl</title>
<ellipse fill="none" stroke="#000000" cx="265.3046" cy="-738" rx="27" ry="18"/>
<text text-anchor="middle" x="265.3046" y="-733.8" font-family="Times,serif" font-size="14.00" fill="#000000">sl</text>
</g>
<!-- fj&#45;&gt;sl -->
<g id="edge28" class="edge">
<title>fj-&gt;sl</title>
<path fill="none" stroke="#000000" d="M265.3046,-791.8314C265.3046,-784.131 265.3046,-774.9743 265.3046,-766.4166"/>
<polygon fill="#000000" stroke="#000000" points="268.8047,-766.4132 265.3046,-756.4133 261.8047,-766.4133 268.8047,-766.4132"/>
</g>
<!-- km -->
<g id="node16" class="node">
<title>km</title>
<ellipse fill="#d3d3d3" stroke="#000000" cx="758.3046" cy="-594" rx="27" ry="18"/>
<text text-anchor="middle" x="758.3046" y="-589.8" font-family="Times,serif" font-size="14.00" fill="#000000">km</text>
</g>
<!-- jn&#45;&gt;km -->
<g id="edge11" class="edge">
<title>jn-&gt;km</title>
<path fill="none" stroke="#000000" d="M255.1987,-663.957C325.9014,-658.3398 522.6835,-641.1165 684.3046,-612 697.1137,-609.6924 711.0134,-606.498 723.2712,-603.4401"/>
<polygon fill="#000000" stroke="#000000" points="724.2977,-606.7903 733.1215,-600.9259 722.5665,-600.0078 724.2977,-606.7903"/>
</g>
<!-- cr -->
<g id="node17" class="node">
<title>cr</title>
<ellipse fill="none" stroke="#000000" cx="57.3046" cy="-594" rx="27" ry="18"/>
<text text-anchor="middle" x="57.3046" y="-589.8" font-family="Times,serif" font-size="14.00" fill="#000000">cr</text>
</g>
<!-- jn&#45;&gt;cr -->
<g id="edge12" class="edge">
<title>jn-&gt;cr</title>
<path fill="none" stroke="#000000" d="M203.6663,-658.4256C175.472,-648.0836 128.86,-628.8962 89.3046,-612 88.3038,-611.5725 87.2898,-611.1379 86.2685,-610.6983"/>
<polygon fill="#000000" stroke="#000000" points="87.6055,-607.4629 77.041,-606.6616 84.7999,-613.8761 87.6055,-607.4629"/>
</g>
<!-- vz -->
<g id="node18" class="node">
<title>vz</title>
<ellipse fill="none" stroke="#000000" cx="196.3046" cy="-522" rx="27" ry="18"/>
<text text-anchor="middle" x="196.3046" y="-517.8" font-family="Times,serif" font-size="14.00" fill="#000000">vz</text>
</g>
<!-- jn&#45;&gt;vz -->
<g id="edge13" class="edge">
<title>jn-&gt;vz</title>
<path fill="none" stroke="#000000" d="M224.3165,-648.0535C218.8552,-623.4774 208.9937,-579.1008 202.5485,-550.0974"/>
<polygon fill="#000000" stroke="#000000" points="205.9291,-549.1753 200.343,-540.1727 199.0957,-550.6939 205.9291,-549.1753"/>
</g>
<!-- xz -->
<g id="node4" class="node">
<title>xz</title>
<ellipse fill="none" stroke="#000000" cx="648.3046" cy="-594" rx="27" ry="18"/>
<text text-anchor="middle" x="648.3046" y="-589.8" font-family="Times,serif" font-size="14.00" fill="#000000">xz</text>
</g>
<!-- cm -->
<g id="node5" class="node">
<title>cm</title>
<ellipse fill="none" stroke="#000000" cx="610.3046" cy="-522" rx="27" ry="18"/>
<text text-anchor="middle" x="610.3046" y="-517.8" font-family="Times,serif" font-size="14.00" fill="#000000">cm</text>
</g>
<!-- xz&#45;&gt;cm -->
<g id="edge3" class="edge">
<title>xz-&gt;cm</title>
<path fill="none" stroke="#000000" d="M639.2992,-576.937C634.8219,-568.4537 629.3095,-558.0092 624.2976,-548.513"/>
<polygon fill="#000000" stroke="#000000" points="627.2724,-546.6509 619.5094,-539.4407 621.0817,-549.9182 627.2724,-546.6509"/>
</g>
<!-- ph -->
<g id="node12" class="node">
<title>ph</title>
<ellipse fill="#d3d3d3" stroke="#000000" cx="703.3046" cy="-738" rx="27" ry="18"/>
<text text-anchor="middle" x="703.3046" y="-733.8" font-family="Times,serif" font-size="14.00" fill="#000000">ph</text>
</g>
<!-- cm&#45;&gt;ph -->
<g id="edge99" class="edge">
<title>cm-&gt;ph</title>
<path fill="none" stroke="#000000" d="M607.6185,-540.1282C605.5707,-558.6985 604.2974,-588.1456 612.3046,-612 626.1138,-653.1392 658.4853,-692.3155 680.6476,-715.7599"/>
<polygon fill="#000000" stroke="#000000" points="678.264,-718.3299 687.7306,-723.0876 683.2972,-713.4649 678.264,-718.3299"/>
</g>
<!-- bj -->
<g id="node46" class="node">
<title>bj</title>
<ellipse fill="none" stroke="#000000" cx="591.3046" cy="-450" rx="27" ry="18"/>
<text text-anchor="middle" x="591.3046" y="-445.8" font-family="Times,serif" font-size="14.00" fill="#000000">bj</text>
</g>
<!-- cm&#45;&gt;bj -->
<g id="edge100" class="edge">
<title>cm-&gt;bj</title>
<path fill="none" stroke="#000000" d="M605.608,-504.2022C603.507,-496.2406 600.9807,-486.6671 598.6396,-477.7957"/>
<polygon fill="#000000" stroke="#000000" points="601.9489,-476.6185 596.0131,-467.8425 595.1806,-478.4046 601.9489,-476.6185"/>
</g>
<!-- fn -->
<g id="node6" class="node">
<title>fn</title>
<ellipse fill="none" stroke="#000000" cx="1234.3046" cy="-810" rx="27" ry="18"/>
<text text-anchor="middle" x="1234.3046" y="-805.8" font-family="Times,serif" font-size="14.00" fill="#000000">fn</text>
</g>
<!-- rj -->
<g id="node7" class="node">
<title>rj</title>
<ellipse fill="none" stroke="#000000" cx="1272.3046" cy="-738" rx="27" ry="18"/>
<text text-anchor="middle" x="1272.3046" y="-733.8" font-family="Times,serif" font-size="14.00" fill="#000000">rj</text>
</g>
<!-- fn&#45;&gt;rj -->
<g id="edge4" class="edge">
<title>fn-&gt;rj</title>
<path fill="none" stroke="#000000" d="M1243.3101,-792.937C1247.7874,-784.4537 1253.2998,-774.0092 1258.3117,-764.513"/>
<polygon fill="#000000" stroke="#000000" points="1261.5276,-765.9182 1263.0998,-755.4407 1255.3369,-762.6509 1261.5276,-765.9182"/>
</g>
<!-- mf -->
<g id="node32" class="node">
<title>mf</title>
<ellipse fill="#d3d3d3" stroke="#000000" cx="1193.3046" cy="-666" rx="27" ry="18"/>
<text text-anchor="middle" x="1193.3046" y="-661.8" font-family="Times,serif" font-size="14.00" fill="#000000">mf</text>
</g>
<!-- rj&#45;&gt;mf -->
<g id="edge66" class="edge">
<title>rj-&gt;mf</title>
<path fill="none" stroke="#000000" d="M1256.3178,-723.4297C1244.9674,-713.0851 1229.5444,-699.0286 1216.7979,-687.4116"/>
<polygon fill="#000000" stroke="#000000" points="1219.0163,-684.6978 1209.2677,-680.5486 1214.301,-689.8715 1219.0163,-684.6978"/>
</g>
<!-- qx -->
<g id="node38" class="node">
<title>qx</title>
<ellipse fill="none" stroke="#000000" cx="1337.3046" cy="-594" rx="27" ry="18"/>
<text text-anchor="middle" x="1337.3046" y="-589.8" font-family="Times,serif" font-size="14.00" fill="#000000">qx</text>
</g>
<!-- rj&#45;&gt;qx -->
<g id="edge67" class="edge">
<title>rj-&gt;qx</title>
<path fill="none" stroke="#000000" d="M1280.1452,-720.6302C1291.3696,-695.7638 1312.1139,-649.8072 1325.2847,-620.6288"/>
<polygon fill="#000000" stroke="#000000" points="1328.5122,-621.9858 1329.4363,-611.4314 1322.132,-619.1059 1328.5122,-621.9858"/>
</g>
<!-- fv -->
<g id="node8" class="node">
<title>fv</title>
<ellipse fill="none" stroke="#000000" cx="1523.3046" cy="-882" rx="27" ry="18"/>
<text text-anchor="middle" x="1523.3046" y="-877.8" font-family="Times,serif" font-size="14.00" fill="#000000">fv</text>
</g>
<!-- nt -->
<g id="node9" class="node">
<title>nt</title>
<ellipse fill="none" stroke="#000000" cx="1654.3046" cy="-810" rx="27" ry="18"/>
<text text-anchor="middle" x="1654.3046" y="-805.8" font-family="Times,serif" font-size="14.00" fill="#000000">nt</text>
</g>
<!-- fv&#45;&gt;nt -->
<g id="edge5" class="edge">
<title>fv-&gt;nt</title>
<path fill="none" stroke="#000000" d="M1544.3521,-870.432C1566.0288,-858.518 1600.0041,-839.8446 1624.4517,-826.4077"/>
<polygon fill="#000000" stroke="#000000" points="1626.2317,-829.4233 1633.3095,-821.5393 1622.86,-823.2888 1626.2317,-829.4233"/>
</g>
<!-- zp -->
<g id="node10" class="node">
<title>zp</title>
<ellipse fill="#d3d3d3" stroke="#000000" cx="1635.3046" cy="-954" rx="27" ry="18"/>
<text text-anchor="middle" x="1635.3046" y="-949.8" font-family="Times,serif" font-size="14.00" fill="#000000">zp</text>
</g>
<!-- fv&#45;&gt;zp -->
<g id="edge6" class="edge">
<title>fv-&gt;zp</title>
<path fill="none" stroke="#000000" d="M1545.2737,-892.9059C1564.0254,-903.7636 1590.7138,-920.681 1610.2579,-933.9631"/>
<polygon fill="#000000" stroke="#000000" points="1608.4623,-936.9764 1618.6808,-939.7751 1612.4379,-931.2149 1608.4623,-936.9764"/>
</g>
<!-- nt&#45;&gt;zp -->
<g id="edge63" class="edge">
<title>nt-&gt;zp</title>
<path fill="none" stroke="#000000" d="M1651.9069,-828.1727C1648.6625,-852.7613 1642.8426,-896.8705 1639.0272,-925.7871"/>
<polygon fill="#000000" stroke="#000000" points="1635.5109,-925.6815 1637.6726,-936.0535 1642.4507,-926.5972 1635.5109,-925.6815"/>
</g>
<!-- rk -->
<g id="node14" class="node">
<title>rk</title>
<ellipse fill="none" stroke="#000000" cx="1692.3046" cy="-738" rx="27" ry="18"/>
<text text-anchor="middle" x="1692.3046" y="-733.8" font-family="Times,serif" font-size="14.00" fill="#000000">rk</text>
</g>
<!-- nt&#45;&gt;rk -->
<g id="edge64" class="edge">
<title>nt-&gt;rk</title>
<path fill="none" stroke="#000000" d="M1663.3101,-792.937C1667.7874,-784.4537 1673.2998,-774.0092 1678.3117,-764.513"/>
<polygon fill="#000000" stroke="#000000" points="1681.5276,-765.9182 1683.0998,-755.4407 1675.3369,-762.6509 1681.5276,-765.9182"/>
</g>
<!-- zp&#45;&gt;fv -->
<g id="edge20" class="edge">
<title>zp-&gt;fv</title>
<path fill="none" stroke="#000000" d="M1613.5546,-943.2209C1594.8514,-932.4027 1568.141,-915.4781 1548.5374,-902.1632"/>
<polygon fill="#000000" stroke="#000000" points="1550.3041,-899.1301 1540.0847,-896.3345 1546.3302,-904.8928 1550.3041,-899.1301"/>
</g>
<!-- tp -->
<g id="node15" class="node">
<title>tp</title>
<ellipse fill="none" stroke="#000000" cx="1730.3046" cy="-666" rx="27" ry="18"/>
<text text-anchor="middle" x="1730.3046" y="-661.8" font-family="Times,serif" font-size="14.00" fill="#000000">tp</text>
</g>
<!-- zp&#45;&gt;tp -->
<g id="edge21" class="edge">
<title>zp-&gt;tp</title>
<path fill="none" stroke="#000000" d="M1652.6699,-939.5585C1663.7372,-929.5058 1677.5858,-915.2166 1686.3046,-900 1719.4482,-842.1558 1718.144,-821.8878 1728.3046,-756 1731.4757,-735.4372 1731.8895,-711.9226 1731.5563,-694.0869"/>
<polygon fill="#000000" stroke="#000000" points="1735.054,-693.9501 1731.2797,-684.0503 1728.0566,-694.143 1735.054,-693.9501"/>
</g>
<!-- gx -->
<g id="node24" class="node">
<title>gx</title>
<ellipse fill="none" stroke="#000000" cx="1749.3046" cy="-594" rx="27" ry="18"/>
<text text-anchor="middle" x="1749.3046" y="-589.8" font-family="Times,serif" font-size="14.00" fill="#000000">gx</text>
</g>
<!-- zp&#45;&gt;gx -->
<g id="edge22" class="edge">
<title>zp-&gt;gx</title>
<path fill="none" stroke="#000000" d="M1658.4134,-944.6424C1700.4896,-925.8967 1785.3046,-879.4914 1785.3046,-810 1785.3046,-810 1785.3046,-810 1785.3046,-738 1785.3046,-696.2294 1770.8717,-649.6235 1760.2831,-621.052"/>
<polygon fill="#000000" stroke="#000000" points="1763.428,-619.4765 1756.5898,-611.384 1756.8889,-621.9746 1763.428,-619.4765"/>
</g>
<!-- kj -->
<g id="node25" class="node">
<title>kj</title>
<ellipse fill="none" stroke="#000000" cx="1702.3046" cy="-378" rx="27" ry="18"/>
<text text-anchor="middle" x="1702.3046" y="-373.8" font-family="Times,serif" font-size="14.00" fill="#000000">kj</text>
</g>
<!-- zp&#45;&gt;kj -->
<g id="edge23" class="edge">
<title>zp-&gt;kj</title>
<path fill="none" stroke="#000000" d="M1661.672,-949.9459C1721.2883,-939.1291 1861.3046,-903.7456 1861.3046,-810 1861.3046,-810 1861.3046,-810 1861.3046,-522 1861.3046,-454.7216 1782.1284,-410.6885 1735.5198,-390.5961"/>
<polygon fill="#000000" stroke="#000000" points="1736.6854,-387.2901 1726.1085,-386.6722 1733.9915,-393.751 1736.6854,-387.2901"/>
</g>
<!-- kz -->
<g id="node26" class="node">
<title>kz</title>
<ellipse fill="#d3d3d3" stroke="#000000" cx="1051.3046" cy="-810" rx="27" ry="18"/>
<text text-anchor="middle" x="1051.3046" y="-805.8" font-family="Times,serif" font-size="14.00" fill="#000000">kz</text>
</g>
<!-- zp&#45;&gt;kz -->
<g id="edge24" class="edge">
<title>zp-&gt;kz</title>
<path fill="none" stroke="#000000" d="M1608.2952,-953.5635C1516.6518,-951.7042 1218.5886,-942.4539 1134.3046,-900 1105.5692,-885.5259 1081.7961,-856.701 1067.1641,-835.5576"/>
<polygon fill="#000000" stroke="#000000" points="1069.9318,-833.3998 1061.4651,-827.0307 1064.112,-837.2896 1069.9318,-833.3998"/>
</g>
<!-- lv -->
<g id="node27" class="node">
<title>lv</title>
<ellipse fill="none" stroke="#000000" cx="1749.3046" cy="-522" rx="27" ry="18"/>
<text text-anchor="middle" x="1749.3046" y="-517.8" font-family="Times,serif" font-size="14.00" fill="#000000">lv</text>
</g>
<!-- zp&#45;&gt;lv -->
<g id="edge25" class="edge">
<title>zp-&gt;lv</title>
<path fill="none" stroke="#000000" d="M1660.6592,-947.4856C1711.9751,-932.6064 1823.3046,-890.993 1823.3046,-810 1823.3046,-810 1823.3046,-810 1823.3046,-666 1823.3046,-619.1302 1791.908,-572.2231 1770.0162,-545.2131"/>
<polygon fill="#000000" stroke="#000000" points="1772.667,-542.927 1763.5726,-537.4916 1767.2925,-547.412 1772.667,-542.927"/>
</g>
<!-- ls -->
<g id="node11" class="node">
<title>ls</title>
<ellipse fill="none" stroke="#000000" cx="562.3046" cy="-234" rx="27" ry="18"/>
<text text-anchor="middle" x="562.3046" y="-229.8" font-family="Times,serif" font-size="14.00" fill="#000000">ls</text>
</g>
<!-- ls&#45;&gt;ph -->
<g id="edge7" class="edge">
<title>ls-&gt;ph</title>
<path fill="none" stroke="#000000" d="M589.166,-236.7248C653.9172,-244.9235 813.3046,-275.5136 813.3046,-378 813.3046,-522 813.3046,-522 813.3046,-522 813.3046,-562.8816 811.8319,-575.0662 794.3046,-612 785.4961,-630.5616 777.5855,-631.5287 765.3046,-648 749.2231,-669.5689 731.9349,-694.8559 719.7107,-713.1248"/>
<polygon fill="#000000" stroke="#000000" points="716.7746,-711.2193 714.144,-721.4824 722.6005,-715.0998 716.7746,-711.2193"/>
</g>
<!-- cf -->
<g id="node13" class="node">
<title>cf</title>
<ellipse fill="none" stroke="#000000" cx="515.3046" cy="-162" rx="27" ry="18"/>
<text text-anchor="middle" x="515.3046" y="-157.8" font-family="Times,serif" font-size="14.00" fill="#000000">cf</text>
</g>
<!-- ls&#45;&gt;cf -->
<g id="edge8" class="edge">
<title>ls-&gt;cf</title>
<path fill="none" stroke="#000000" d="M551.4038,-217.3008C545.5311,-208.3043 538.168,-197.0247 531.626,-187.0029"/>
<polygon fill="#000000" stroke="#000000" points="534.5435,-185.0693 526.1464,-178.6087 528.6818,-188.8957 534.5435,-185.0693"/>
</g>
<!-- ph&#45;&gt;xz -->
<g id="edge82" class="edge">
<title>ph-&gt;xz</title>
<path fill="none" stroke="#000000" d="M696.5606,-720.3428C687.1179,-695.6202 669.8695,-650.4608 658.7561,-621.3639"/>
<polygon fill="#000000" stroke="#000000" points="661.9416,-619.8946 655.1039,-611.8017 655.4024,-622.3923 661.9416,-619.8946"/>
</g>
<!-- tk -->
<g id="node34" class="node">
<title>tk</title>
<ellipse fill="none" stroke="#000000" cx="735.3046" cy="-882" rx="27" ry="18"/>
<text text-anchor="middle" x="735.3046" y="-877.8" font-family="Times,serif" font-size="14.00" fill="#000000">tk</text>
</g>
<!-- ph&#45;&gt;tk -->
<g id="edge83" class="edge">
<title>ph-&gt;tk</title>
<path fill="none" stroke="#000000" d="M711.6914,-755.1933C719.6676,-779.5605 729.9472,-824.4306 734.5153,-853.7364"/>
<polygon fill="#000000" stroke="#000000" points="731.0666,-854.3471 735.925,-863.7623 737.9984,-853.3723 731.0666,-854.3471"/>
</g>
<!-- nn -->
<g id="node47" class="node">
<title>nn</title>
<ellipse fill="none" stroke="#000000" cx="591.3046" cy="-378" rx="27" ry="18"/>
<text text-anchor="middle" x="591.3046" y="-373.8" font-family="Times,serif" font-size="14.00" fill="#000000">nn</text>
</g>
<!-- ph&#45;&gt;nn -->
<g id="edge84" class="edge">
<title>ph-&gt;nn</title>
<path fill="none" stroke="#000000" d="M703.3046,-719.8146C703.3046,-692.4983 703.3046,-639.25 703.3046,-594 703.3046,-594 703.3046,-594 703.3046,-522 703.3046,-467.3419 652.4056,-420.9358 619.233,-396.4956"/>
<polygon fill="#000000" stroke="#000000" points="620.9847,-393.4456 610.8136,-390.4795 616.9151,-399.1411 620.9847,-393.4456"/>
</g>
<!-- ps -->
<g id="node55" class="node">
<title>ps</title>
<ellipse fill="none" stroke="#000000" cx="834.3046" cy="-666" rx="27" ry="18"/>
<text text-anchor="middle" x="834.3046" y="-661.8" font-family="Times,serif" font-size="14.00" fill="#000000">ps</text>
</g>
<!-- ph&#45;&gt;ps -->
<g id="edge85" class="edge">
<title>ph-&gt;ps</title>
<path fill="none" stroke="#000000" d="M724.3521,-726.432C746.0288,-714.518 780.0041,-695.8446 804.4517,-682.4077"/>
<polygon fill="#000000" stroke="#000000" points="806.2317,-685.4233 813.3095,-677.5393 802.86,-679.2888 806.2317,-685.4233"/>
</g>
<!-- qs -->
<g id="node56" class="node">
<title>qs</title>
<ellipse fill="#d3d3d3" stroke="#000000" cx="906.3046" cy="-666" rx="27" ry="18"/>
<text text-anchor="middle" x="906.3046" y="-661.8" font-family="Times,serif" font-size="14.00" fill="#000000">qs</text>
</g>
<!-- ph&#45;&gt;qs -->
<g id="edge86" class="edge">
<title>ph-&gt;qs</title>
<path fill="none" stroke="#000000" d="M728.3409,-731.1853C761.3742,-721.9052 821.0889,-704.1266 870.3046,-684 872.0995,-683.266 873.9282,-682.4797 875.7623,-681.6609"/>
<polygon fill="#000000" stroke="#000000" points="877.2865,-684.8119 884.847,-677.3896 874.3081,-678.4771 877.2865,-684.8119"/>
</g>
<!-- cf&#45;&gt;ph -->
<g id="edge95" class="edge">
<title>cf-&gt;ph</title>
<path fill="none" stroke="#000000" d="M508.0195,-179.384C497.5002,-206.1035 479.3046,-259.0997 479.3046,-306 479.3046,-594 479.3046,-594 479.3046,-594 479.3046,-640.4205 495.9837,-655.0923 532.3046,-684 571.6038,-715.278 629.2837,-728.5794 666.5693,-734.1398"/>
<polygon fill="#000000" stroke="#000000" points="666.1282,-737.6121 676.5127,-735.5114 667.0848,-730.6777 666.1282,-737.6121"/>
</g>
<!-- nz -->
<g id="node41" class="node">
<title>nz</title>
<ellipse fill="none" stroke="#000000" cx="515.3046" cy="-90" rx="27" ry="18"/>
<text text-anchor="middle" x="515.3046" y="-85.8" font-family="Times,serif" font-size="14.00" fill="#000000">nz</text>
</g>
<!-- cf&#45;&gt;nz -->
<g id="edge96" class="edge">
<title>cf-&gt;nz</title>
<path fill="none" stroke="#000000" d="M515.3046,-143.8314C515.3046,-136.131 515.3046,-126.9743 515.3046,-118.4166"/>
<polygon fill="#000000" stroke="#000000" points="518.8047,-118.4132 515.3046,-108.4133 511.8047,-118.4133 518.8047,-118.4132"/>
</g>
<!-- rk&#45;&gt;zp -->
<g id="edge9" class="edge">
<title>rk-&gt;zp</title>
<path fill="none" stroke="#000000" d="M1693.9421,-756.1743C1695.1219,-774.5285 1695.686,-803.5797 1690.3046,-828 1682.2785,-864.4221 1663.5592,-903.3248 1650.1909,-928.1101"/>
<polygon fill="#000000" stroke="#000000" points="1646.9458,-926.7474 1645.1876,-937.1953 1653.0775,-930.1242 1646.9458,-926.7474"/>
</g>
<!-- rk&#45;&gt;tp -->
<g id="edge10" class="edge">
<title>rk-&gt;tp</title>
<path fill="none" stroke="#000000" d="M1701.3101,-720.937C1705.7874,-712.4537 1711.2998,-702.0092 1716.3117,-692.513"/>
<polygon fill="#000000" stroke="#000000" points="1719.5276,-693.9182 1721.0998,-683.4407 1713.3369,-690.6509 1719.5276,-693.9182"/>
</g>
<!-- tp&#45;&gt;gx -->
<g id="edge19" class="edge">
<title>tp-&gt;gx</title>
<path fill="none" stroke="#000000" d="M1735.0013,-648.2022C1737.1023,-640.2406 1739.6286,-630.6671 1741.9697,-621.7957"/>
<polygon fill="#000000" stroke="#000000" points="1745.4287,-622.4046 1744.5962,-611.8425 1738.6604,-620.6185 1745.4287,-622.4046"/>
</g>
<!-- gq -->
<g id="node28" class="node">
<title>gq</title>
<ellipse fill="#d3d3d3" stroke="#000000" cx="925.3046" cy="-522" rx="27" ry="18"/>
<text text-anchor="middle" x="925.3046" y="-517.8" font-family="Times,serif" font-size="14.00" fill="#000000">gq</text>
</g>
<!-- km&#45;&gt;gq -->
<g id="edge88" class="edge">
<title>km-&gt;gq</title>
<path fill="none" stroke="#000000" d="M781.1751,-584.1397C810.0763,-571.6793 860.0023,-550.1543 892.8421,-535.9958"/>
<polygon fill="#000000" stroke="#000000" points="894.6458,-539.0297 902.443,-531.8565 891.8744,-532.6016 894.6458,-539.0297"/>
</g>
<!-- cr&#45;&gt;jn -->
<g id="edge29" class="edge">
<title>cr-&gt;jn</title>
<path fill="none" stroke="#000000" d="M82.2745,-601.4322C90.4493,-604.707 99.2978,-608.5799 107.3046,-612 138.2564,-625.2212 173.529,-639.8452 198.1147,-650.5364"/>
<polygon fill="#000000" stroke="#000000" points="196.7421,-653.7563 207.3054,-654.5736 199.5574,-647.3473 196.7421,-653.7563"/>
</g>
<!-- cr&#45;&gt;vz -->
<g id="edge30" class="edge">
<title>cr-&gt;vz</title>
<path fill="none" stroke="#000000" d="M78.7188,-582.9078C101.9147,-570.8927 139.1273,-551.617 165.4699,-537.9719"/>
<polygon fill="#000000" stroke="#000000" points="167.3675,-540.9308 174.6372,-533.2234 164.1479,-534.7151 167.3675,-540.9308"/>
</g>
<!-- hf -->
<g id="node50" class="node">
<title>hf</title>
<ellipse fill="none" stroke="#000000" cx="196.3046" cy="-450" rx="27" ry="18"/>
<text text-anchor="middle" x="196.3046" y="-445.8" font-family="Times,serif" font-size="14.00" fill="#000000">hf</text>
</g>
<!-- vz&#45;&gt;hf -->
<g id="edge53" class="edge">
<title>vz-&gt;hf</title>
<path fill="none" stroke="#000000" d="M196.3046,-503.8314C196.3046,-496.131 196.3046,-486.9743 196.3046,-478.4166"/>
<polygon fill="#000000" stroke="#000000" points="199.8047,-478.4132 196.3046,-468.4133 192.8047,-478.4133 199.8047,-478.4132"/>
</g>
<!-- nh -->
<g id="node19" class="node">
<title>nh</title>
<ellipse fill="none" stroke="#000000" cx="562.3046" cy="-306" rx="27" ry="18"/>
<text text-anchor="middle" x="562.3046" y="-301.8" font-family="Times,serif" font-size="14.00" fill="#000000">nh</text>
</g>
<!-- nh&#45;&gt;ls -->
<g id="edge14" class="edge">
<title>nh-&gt;ls</title>
<path fill="none" stroke="#000000" d="M562.3046,-287.8314C562.3046,-280.131 562.3046,-270.9743 562.3046,-262.4166"/>
<polygon fill="#000000" stroke="#000000" points="565.8047,-262.4132 562.3046,-252.4133 558.8047,-262.4133 565.8047,-262.4132"/>
</g>
<!-- nh&#45;&gt;ph -->
<g id="edge15" class="edge">
<title>nh-&gt;ph</title>
<path fill="none" stroke="#000000" d="M553.1982,-323.1911C540.0491,-349.6586 517.3046,-402.3301 517.3046,-450 517.3046,-594 517.3046,-594 517.3046,-594 517.3046,-669.3882 614.0229,-710.9296 667.9716,-728.2372"/>
<polygon fill="#000000" stroke="#000000" points="667.2445,-731.6757 677.8321,-731.2841 669.3112,-724.9878 667.2445,-731.6757"/>
</g>
<!-- tx -->
<g id="node20" class="node">
<title>tx</title>
<ellipse fill="none" stroke="#000000" cx="1261.3046" cy="-450" rx="27" ry="18"/>
<text text-anchor="middle" x="1261.3046" y="-445.8" font-family="Times,serif" font-size="14.00" fill="#000000">tx</text>
</g>
<!-- gb -->
<g id="node21" class="node">
<title>gb</title>
<ellipse fill="none" stroke="#000000" cx="1223.3046" cy="-378" rx="27" ry="18"/>
<text text-anchor="middle" x="1223.3046" y="-373.8" font-family="Times,serif" font-size="14.00" fill="#000000">gb</text>
</g>
<!-- tx&#45;&gt;gb -->
<g id="edge16" class="edge">
<title>tx-&gt;gb</title>
<path fill="none" stroke="#000000" d="M1252.2992,-432.937C1247.8219,-424.4537 1242.3095,-414.0092 1237.2976,-404.513"/>
<polygon fill="#000000" stroke="#000000" points="1240.2724,-402.6509 1232.5094,-395.4407 1234.0817,-405.9182 1240.2724,-402.6509"/>
</g>
<!-- jp -->
<g id="node45" class="node">
<title>jp</title>
<ellipse fill="none" stroke="#000000" cx="1185.3046" cy="-306" rx="27" ry="18"/>
<text text-anchor="middle" x="1185.3046" y="-301.8" font-family="Times,serif" font-size="14.00" fill="#000000">jp</text>
</g>
<!-- gb&#45;&gt;jp -->
<g id="edge45" class="edge">
<title>gb-&gt;jp</title>
<path fill="none" stroke="#000000" d="M1214.2992,-360.937C1209.8219,-352.4537 1204.3095,-342.0092 1199.2976,-332.513"/>
<polygon fill="#000000" stroke="#000000" points="1202.2724,-330.6509 1194.5094,-323.4407 1196.0817,-333.9182 1202.2724,-330.6509"/>
</g>
<!-- xg -->
<g id="node22" class="node">
<title>xg</title>
<ellipse fill="none" stroke="#000000" cx="1485.3046" cy="-162" rx="27" ry="18"/>
<text text-anchor="middle" x="1485.3046" y="-157.8" font-family="Times,serif" font-size="14.00" fill="#000000">xg</text>
</g>
<!-- xg&#45;&gt;zp -->
<g id="edge17" class="edge">
<title>xg-&gt;zp</title>
<path fill="none" stroke="#000000" d="M1481.7822,-180.1045C1476.8028,-207.3176 1468.3046,-260.4358 1468.3046,-306 1468.3046,-810 1468.3046,-810 1468.3046,-810 1468.3046,-850.8816 1460.5174,-869.1171 1487.3046,-900 1515.3212,-932.3002 1564.3102,-945.2884 1598.2103,-950.5058"/>
<polygon fill="#000000" stroke="#000000" points="1597.8214,-953.9853 1608.2067,-951.8883 1598.7805,-947.0513 1597.8214,-953.9853"/>
</g>
<!-- dv -->
<g id="node23" class="node">
<title>dv</title>
<ellipse fill="none" stroke="#000000" cx="1457.3046" cy="-90" rx="27" ry="18"/>
<text text-anchor="middle" x="1457.3046" y="-85.8" font-family="Times,serif" font-size="14.00" fill="#000000">dv</text>
</g>
<!-- xg&#45;&gt;dv -->
<g id="edge18" class="edge">
<title>xg-&gt;dv</title>
<path fill="none" stroke="#000000" d="M1478.5266,-144.5708C1475.3175,-136.3187 1471.4111,-126.2738 1467.8289,-117.0623"/>
<polygon fill="#000000" stroke="#000000" points="1471.0038,-115.5697 1464.1173,-107.5182 1464.4798,-118.1069 1471.0038,-115.5697"/>
</g>
<!-- dv&#45;&gt;zp -->
<g id="edge73" class="edge">
<title>dv-&gt;zp</title>
<path fill="none" stroke="#000000" d="M1451.7102,-107.9823C1443.8018,-135.0397 1430.3046,-187.9615 1430.3046,-234 1430.3046,-810 1430.3046,-810 1430.3046,-810 1430.3046,-852.7592 1433.2446,-870.6126 1464.3046,-900 1483.8799,-918.5212 1555.1811,-936.6876 1599.2964,-946.5089"/>
<polygon fill="#000000" stroke="#000000" points="1598.8246,-949.9884 1609.3415,-948.706 1600.3204,-943.1501 1598.8246,-949.9884"/>
</g>
<!-- gx&#45;&gt;lv -->
<g id="edge109" class="edge">
<title>gx-&gt;lv</title>
<path fill="none" stroke="#000000" d="M1749.3046,-575.8314C1749.3046,-568.131 1749.3046,-558.9743 1749.3046,-550.4166"/>
<polygon fill="#000000" stroke="#000000" points="1752.8047,-550.4132 1749.3046,-540.4133 1745.8047,-550.4133 1752.8047,-550.4132"/>
</g>
<!-- tt -->
<g id="node33" class="node">
<title>tt</title>
<ellipse fill="none" stroke="#000000" cx="1608.3046" cy="-306" rx="27" ry="18"/>
<text text-anchor="middle" x="1608.3046" y="-301.8" font-family="Times,serif" font-size="14.00" fill="#000000">tt</text>
</g>
<!-- kj&#45;&gt;tt -->
<g id="edge33" class="edge">
<title>kj-&gt;tt</title>
<path fill="none" stroke="#000000" d="M1684.1805,-364.1177C1670.046,-353.2913 1650.2229,-338.1076 1634.3831,-325.975"/>
<polygon fill="#000000" stroke="#000000" points="1636.1214,-322.8978 1626.0544,-319.5955 1631.8649,-328.4549 1636.1214,-322.8978"/>
</g>
<!-- kz&#45;&gt;gq -->
<g id="edge70" class="edge">
<title>kz-&gt;gq</title>
<path fill="none" stroke="#000000" d="M1043.4253,-792.5673C1027.8948,-758.142 992.3184,-678.9618 963.3046,-612 954.1446,-590.8592 944.0059,-566.8126 936.5065,-548.8969"/>
<polygon fill="#000000" stroke="#000000" points="939.7199,-547.5091 932.6347,-539.6319 933.2612,-550.2082 939.7199,-547.5091"/>
</g>
<!-- sx -->
<g id="node40" class="node">
<title>sx</title>
<ellipse fill="none" stroke="#000000" cx="1702.3046" cy="-450" rx="27" ry="18"/>
<text text-anchor="middle" x="1702.3046" y="-445.8" font-family="Times,serif" font-size="14.00" fill="#000000">sx</text>
</g>
<!-- lv&#45;&gt;sx -->
<g id="edge39" class="edge">
<title>lv-&gt;sx</title>
<path fill="none" stroke="#000000" d="M1738.4038,-505.3008C1732.5311,-496.3043 1725.168,-485.0247 1718.626,-475.0029"/>
<polygon fill="#000000" stroke="#000000" points="1721.5435,-473.0693 1713.1464,-466.6087 1715.6818,-476.8957 1721.5435,-473.0693"/>
</g>
<!-- rx -->
<g id="node29" class="node">
<title>rx</title>
<polygon fill="none" stroke="#000000" points="925.3046,-468 898.3046,-450 925.3046,-432 952.3046,-450 925.3046,-468"/>
<polyline fill="none" stroke="#000000" points="907.3046,-456 907.3046,-444 "/>
<polyline fill="none" stroke="#000000" points="916.3046,-438 934.3046,-438 "/>
<polyline fill="none" stroke="#000000" points="943.3046,-444 943.3046,-456 "/>
<polyline fill="none" stroke="#000000" points="934.3046,-462 916.3046,-462 "/>
<text text-anchor="middle" x="925.3046" y="-445.8" font-family="Times,serif" font-size="14.00" fill="#000000">rx</text>
</g>
<!-- gq&#45;&gt;rx -->
<g id="edge26" class="edge">
<title>gq-&gt;rx</title>
<path fill="none" stroke="#000000" d="M925.3046,-503.8314C925.3046,-496.131 925.3046,-486.9743 925.3046,-478.4166"/>
<polygon fill="#000000" stroke="#000000" points="928.8047,-478.4132 925.3046,-468.4133 921.8047,-478.4133 928.8047,-478.4132"/>
</g>
<!-- sl&#45;&gt;jn -->
<g id="edge108" class="edge">
<title>sl-&gt;jn</title>
<path fill="none" stroke="#000000" d="M256.5362,-720.937C252.1767,-712.4537 246.8094,-702.0092 241.9294,-692.513"/>
<polygon fill="#000000" stroke="#000000" points="244.951,-690.7352 237.2672,-683.4407 238.7249,-693.9348 244.951,-690.7352"/>
</g>
<!-- rt -->
<g id="node31" class="node">
<title>rt</title>
<ellipse fill="none" stroke="#000000" cx="1170.3046" cy="-882" rx="27" ry="18"/>
<text text-anchor="middle" x="1170.3046" y="-877.8" font-family="Times,serif" font-size="14.00" fill="#000000">rt</text>
</g>
<!-- rt&#45;&gt;fn -->
<g id="edge31" class="edge">
<title>rt-&gt;fn</title>
<path fill="none" stroke="#000000" d="M1184.1917,-866.3771C1192.83,-856.659 1204.0939,-843.987 1213.7543,-833.1191"/>
<polygon fill="#000000" stroke="#000000" points="1216.417,-835.3918 1220.4447,-825.5924 1211.1851,-830.7413 1216.417,-835.3918"/>
</g>
<!-- rt&#45;&gt;mf -->
<g id="edge32" class="edge">
<title>rt-&gt;mf</title>
<path fill="none" stroke="#000000" d="M1168.2801,-863.9555C1168.8311,-826.2205 1177.893,-738.7518 1185.6439,-693.7882"/>
<polygon fill="#000000" stroke="#000000" points="1189.1066,-694.3101 1187.4777,-683.8413 1182.2226,-693.0409 1189.1066,-694.3101"/>
</g>
<!-- mf&#45;&gt;fn -->
<g id="edge75" class="edge">
<title>mf-&gt;fn</title>
<path fill="none" stroke="#000000" d="M1198.35,-683.7204C1205.3507,-708.308 1218.0819,-753.0224 1226.3638,-782.1102"/>
<polygon fill="#000000" stroke="#000000" points="1223.0902,-783.3942 1229.1949,-792.0535 1229.8226,-781.4772 1223.0902,-783.3942"/>
</g>
<!-- mf&#45;&gt;tx -->
<g id="edge76" class="edge">
<title>mf-&gt;tx</title>
<path fill="none" stroke="#000000" d="M1203.0391,-648.9153C1208.6702,-638.4984 1215.5586,-624.7728 1220.3046,-612 1237.2818,-566.3102 1249.6343,-510.817 1256.1201,-478.0667"/>
<polygon fill="#000000" stroke="#000000" points="1259.6279,-478.3621 1258.093,-467.879 1252.7555,-477.0312 1259.6279,-478.3621"/>
</g>
<!-- mf&#45;&gt;gb -->
<g id="edge77" class="edge">
<title>mf-&gt;gb</title>
<path fill="none" stroke="#000000" d="M1195.1813,-647.9843C1200.2532,-599.2939 1214.2634,-464.7961 1220.382,-406.0573"/>
<polygon fill="#000000" stroke="#000000" points="1223.8737,-406.3177 1221.4287,-396.0089 1216.9114,-405.5924 1223.8737,-406.3177"/>
</g>
<!-- mf&#45;&gt;rt -->
<g id="edge78" class="edge">
<title>mf-&gt;rt</title>
<path fill="none" stroke="#000000" d="M1195.3264,-684.2255C1194.7484,-722.1145 1185.6772,-809.5783 1177.931,-854.4108"/>
<polygon fill="#000000" stroke="#000000" points="1174.4747,-853.8542 1176.0986,-864.3238 1181.3581,-855.1266 1174.4747,-853.8542"/>
</g>
<!-- mf&#45;&gt;qx -->
<g id="edge79" class="edge">
<title>mf-&gt;qx</title>
<path fill="none" stroke="#000000" d="M1215.1751,-655.0647C1239.5269,-642.8889 1279.0667,-623.119 1306.5331,-609.3858"/>
<polygon fill="#000000" stroke="#000000" points="1308.3211,-612.4049 1315.7001,-604.8022 1305.1906,-606.1439 1308.3211,-612.4049"/>
</g>
<!-- dd -->
<g id="node43" class="node">
<title>dd</title>
<ellipse fill="none" stroke="#000000" cx="1147.3046" cy="-234" rx="27" ry="18"/>
<text text-anchor="middle" x="1147.3046" y="-229.8" font-family="Times,serif" font-size="14.00" fill="#000000">dd</text>
</g>
<!-- mf&#45;&gt;dd -->
<g id="edge80" class="edge">
<title>mf-&gt;dd</title>
<path fill="none" stroke="#000000" d="M1180.8579,-649.7319C1162.4977,-624.0638 1130.3046,-571.9368 1130.3046,-522 1130.3046,-522 1130.3046,-522 1130.3046,-378 1130.3046,-337.5973 1136.9865,-291.2552 1141.972,-262.3013"/>
<polygon fill="#000000" stroke="#000000" points="1145.4803,-262.5623 1143.7822,-252.1045 1138.5881,-261.3387 1145.4803,-262.5623"/>
</g>
<!-- xj -->
<g id="node54" class="node">
<title>xj</title>
<ellipse fill="#d3d3d3" stroke="#000000" cx="999.3046" cy="-594" rx="27" ry="18"/>
<text text-anchor="middle" x="999.3046" y="-589.8" font-family="Times,serif" font-size="14.00" fill="#000000">xj</text>
</g>
<!-- mf&#45;&gt;xj -->
<g id="edge81" class="edge">
<title>mf-&gt;xj</title>
<path fill="none" stroke="#000000" d="M1168.9844,-658.0391C1138.628,-647.9601 1085.2299,-629.7612 1040.3046,-612 1037.2683,-610.7996 1034.1247,-609.5086 1030.9907,-608.189"/>
<polygon fill="#000000" stroke="#000000" points="1032.3039,-604.9438 1021.7347,-604.2065 1029.5373,-611.3739 1032.3039,-604.9438"/>
</g>
<!-- tt&#45;&gt;zp -->
<g id="edge56" class="edge">
<title>tt-&gt;zp</title>
<path fill="none" stroke="#000000" d="M1598.7935,-323.1429C1585.06,-349.5474 1561.3046,-402.1378 1561.3046,-450 1561.3046,-738 1561.3046,-738 1561.3046,-738 1561.3046,-809.8066 1598.3574,-888.145 1620.0251,-927.8167"/>
<polygon fill="#000000" stroke="#000000" points="1617.2427,-930.0135 1625.1704,-937.0422 1623.3561,-926.6038 1617.2427,-930.0135"/>
</g>
<!-- mt -->
<g id="node49" class="node">
<title>mt</title>
<ellipse fill="none" stroke="#000000" cx="1608.3046" cy="-234" rx="27" ry="18"/>
<text text-anchor="middle" x="1608.3046" y="-229.8" font-family="Times,serif" font-size="14.00" fill="#000000">mt</text>
</g>
<!-- tt&#45;&gt;mt -->
<g id="edge57" class="edge">
<title>tt-&gt;mt</title>
<path fill="none" stroke="#000000" d="M1608.3046,-287.8314C1608.3046,-280.131 1608.3046,-270.9743 1608.3046,-262.4166"/>
<polygon fill="#000000" stroke="#000000" points="1611.8047,-262.4132 1608.3046,-252.4133 1604.8047,-262.4133 1611.8047,-262.4132"/>
</g>
<!-- tk&#45;&gt;ph -->
<g id="edge34" class="edge">
<title>tk-&gt;ph</title>
<path fill="none" stroke="#000000" d="M726.8602,-864.6302C718.8997,-840.2465 708.6705,-795.5835 704.107,-766.3467"/>
<polygon fill="#000000" stroke="#000000" points="707.558,-765.7531 702.6967,-756.3394 700.6265,-766.7299 707.558,-765.7531"/>
</g>
<!-- mg -->
<g id="node35" class="node">
<title>mg</title>
<ellipse fill="none" stroke="#000000" cx="767.3046" cy="-810" rx="27" ry="18"/>
<text text-anchor="middle" x="767.3046" y="-805.8" font-family="Times,serif" font-size="14.00" fill="#000000">mg</text>
</g>
<!-- tk&#45;&gt;mg -->
<g id="edge35" class="edge">
<title>tk-&gt;mg</title>
<path fill="none" stroke="#000000" d="M743.0509,-864.5708C746.785,-856.1691 751.3451,-845.9091 755.4992,-836.5623"/>
<polygon fill="#000000" stroke="#000000" points="758.7666,-837.8283 759.6297,-827.2687 752.3699,-834.9853 758.7666,-837.8283"/>
</g>
<!-- mg&#45;&gt;ph -->
<g id="edge61" class="edge">
<title>mg-&gt;ph</title>
<path fill="none" stroke="#000000" d="M753.4176,-794.3771C744.7793,-784.659 733.5153,-771.987 723.855,-761.1191"/>
<polygon fill="#000000" stroke="#000000" points="726.4242,-758.7413 717.1646,-753.5924 721.1923,-763.3918 726.4242,-758.7413"/>
</g>
<!-- mg&#45;&gt;ps -->
<g id="edge62" class="edge">
<title>mg-&gt;ps</title>
<path fill="none" stroke="#000000" d="M775.3864,-792.6302C786.9562,-767.7638 808.3388,-721.8072 821.9149,-692.6288"/>
<polygon fill="#000000" stroke="#000000" points="825.149,-693.9745 826.1942,-683.4314 818.8023,-691.0215 825.149,-693.9745"/>
</g>
<!-- xt -->
<g id="node36" class="node">
<title>xt</title>
<ellipse fill="none" stroke="#000000" cx="291.3046" cy="-90" rx="27" ry="18"/>
<text text-anchor="middle" x="291.3046" y="-85.8" font-family="Times,serif" font-size="14.00" fill="#000000">xt</text>
</g>
<!-- xt&#45;&gt;jn -->
<g id="edge36" class="edge">
<title>xt-&gt;jn</title>
<path fill="none" stroke="#000000" d="M264.1162,-91.0223C192.1737,-95.3202 2.3046,-117.6817 2.3046,-234 2.3046,-522 2.3046,-522 2.3046,-522 2.3046,-562.8816 -6.9139,-582.4192 21.3046,-612 44.5573,-636.3752 138.7984,-653.3205 191.7444,-661.1261"/>
<polygon fill="#000000" stroke="#000000" points="191.3534,-664.6058 201.7497,-662.5648 192.3498,-657.6771 191.3534,-664.6058"/>
</g>
<!-- gh -->
<g id="node37" class="node">
<title>gh</title>
<ellipse fill="none" stroke="#000000" cx="365.3046" cy="-18" rx="27" ry="18"/>
<text text-anchor="middle" x="365.3046" y="-13.8" font-family="Times,serif" font-size="14.00" fill="#000000">gh</text>
</g>
<!-- xt&#45;&gt;gh -->
<g id="edge37" class="edge">
<title>xt-&gt;gh</title>
<path fill="none" stroke="#000000" d="M306.6375,-75.0816C317.0556,-64.945 331.0124,-51.3654 342.6993,-39.9944"/>
<polygon fill="#000000" stroke="#000000" points="345.2649,-42.3815 349.9914,-32.8993 340.3834,-37.3644 345.2649,-42.3815"/>
</g>
<!-- gh&#45;&gt;dj -->
<g id="edge104" class="edge">
<title>gh-&gt;dj</title>
<path fill="none" stroke="#000000" d="M372.9945,-35.3446C384.0982,-62.0126 403.3046,-114.9424 403.3046,-162 403.3046,-738 403.3046,-738 403.3046,-738 403.3046,-786.3781 367.7057,-833.1519 343.1357,-859.6733"/>
<polygon fill="#000000" stroke="#000000" points="340.2914,-857.5839 335.9163,-867.2332 345.3539,-862.4184 340.2914,-857.5839"/>
</g>
<!-- gh&#45;&gt;jn -->
<g id="edge105" class="edge">
<title>gh-&gt;jn</title>
<path fill="none" stroke="#000000" d="M365.3046,-36.1854C365.3046,-63.5017 365.3046,-116.75 365.3046,-162 365.3046,-522 365.3046,-522 365.3046,-522 365.3046,-582.9849 300.0099,-628.397 259.5749,-650.6726"/>
<polygon fill="#000000" stroke="#000000" points="257.7938,-647.6558 250.621,-655.4533 261.0908,-653.8308 257.7938,-647.6558"/>
</g>
<!-- bx -->
<g id="node39" class="node">
<title>bx</title>
<ellipse fill="none" stroke="#000000" cx="1299.3046" cy="-522" rx="27" ry="18"/>
<text text-anchor="middle" x="1299.3046" y="-517.8" font-family="Times,serif" font-size="14.00" fill="#000000">bx</text>
</g>
<!-- qx&#45;&gt;bx -->
<g id="edge38" class="edge">
<title>qx-&gt;bx</title>
<path fill="none" stroke="#000000" d="M1328.2992,-576.937C1323.8219,-568.4537 1318.3095,-558.0092 1313.2976,-548.513"/>
<polygon fill="#000000" stroke="#000000" points="1316.2724,-546.6509 1308.5094,-539.4407 1310.0817,-549.9182 1316.2724,-546.6509"/>
</g>
<!-- bx&#45;&gt;tx -->
<g id="edge49" class="edge">
<title>bx-&gt;tx</title>
<path fill="none" stroke="#000000" d="M1290.2992,-504.937C1285.8219,-496.4537 1280.3095,-486.0092 1275.2976,-476.513"/>
<polygon fill="#000000" stroke="#000000" points="1278.2724,-474.6509 1270.5094,-467.4407 1272.0817,-477.9182 1278.2724,-474.6509"/>
</g>
<!-- bx&#45;&gt;mf -->
<g id="edge50" class="edge">
<title>bx-&gt;mf</title>
<path fill="none" stroke="#000000" d="M1293.8496,-539.8475C1287.42,-558.9829 1275.4023,-589.6263 1258.3046,-612 1248.027,-625.4491 1233.8108,-637.7439 1221.2936,-647.1931"/>
<polygon fill="#000000" stroke="#000000" points="1218.9893,-644.5415 1212.9686,-653.2594 1223.1118,-650.1988 1218.9893,-644.5415"/>
</g>
<!-- sx&#45;&gt;zp -->
<g id="edge42" class="edge">
<title>sx-&gt;zp</title>
<path fill="none" stroke="#000000" d="M1683.8903,-463.2174C1654.2639,-486.1795 1599.3046,-536.5218 1599.3046,-594 1599.3046,-738 1599.3046,-738 1599.3046,-738 1599.3046,-806.5469 1617.1628,-885.6855 1627.7236,-926.4926"/>
<polygon fill="#000000" stroke="#000000" points="1624.3618,-927.4707 1630.299,-936.2456 1631.1298,-925.6834 1624.3618,-927.4707"/>
</g>
<!-- sx&#45;&gt;kj -->
<g id="edge43" class="edge">
<title>sx-&gt;kj</title>
<path fill="none" stroke="#000000" d="M1702.3046,-431.8314C1702.3046,-424.131 1702.3046,-414.9743 1702.3046,-406.4166"/>
<polygon fill="#000000" stroke="#000000" points="1705.8047,-406.4132 1702.3046,-396.4133 1698.8047,-406.4133 1705.8047,-406.4132"/>
</g>
<!-- nz&#45;&gt;ph -->
<g id="edge40" class="edge">
<title>nz-&gt;ph</title>
<path fill="none" stroke="#000000" d="M541.3904,-95.2783C620.3351,-111.9923 851.3046,-166.648 851.3046,-234 851.3046,-522 851.3046,-522 851.3046,-522 851.3046,-562.7582 792.5039,-653.6449 765.3046,-684 754.4201,-696.1474 740.9001,-708.2091 729.2657,-717.8416"/>
<polygon fill="#000000" stroke="#000000" points="726.752,-715.3739 721.192,-724.3926 731.1626,-720.8097 726.752,-715.3739"/>
</g>
<!-- dp -->
<g id="node42" class="node">
<title>dp</title>
<ellipse fill="none" stroke="#000000" cx="478.3046" cy="-18" rx="27" ry="18"/>
<text text-anchor="middle" x="478.3046" y="-13.8" font-family="Times,serif" font-size="14.00" fill="#000000">dp</text>
</g>
<!-- nz&#45;&gt;dp -->
<g id="edge41" class="edge">
<title>nz-&gt;dp</title>
<path fill="none" stroke="#000000" d="M506.5362,-72.937C502.1767,-64.4537 496.8094,-54.0092 491.9294,-44.513"/>
<polygon fill="#000000" stroke="#000000" points="494.951,-42.7352 487.2672,-35.4407 488.7249,-45.9348 494.951,-42.7352"/>
</g>
<!-- dp&#45;&gt;ph -->
<g id="edge74" class="edge">
<title>dp-&gt;ph</title>
<path fill="none" stroke="#000000" d="M470.8171,-35.3645C460.0056,-62.0586 441.3046,-115.022 441.3046,-162 441.3046,-594 441.3046,-594 441.3046,-594 441.3046,-639.5442 454.3323,-656.0668 490.3046,-684 517.6347,-705.2224 613.1874,-723.4832 666.5516,-732.3231"/>
<polygon fill="#000000" stroke="#000000" points="666.1967,-735.8113 676.6292,-733.9635 667.3215,-728.9022 666.1967,-735.8113"/>
</g>
<!-- bf -->
<g id="node44" class="node">
<title>bf</title>
<ellipse fill="none" stroke="#000000" cx="1128.3046" cy="-162" rx="27" ry="18"/>
<text text-anchor="middle" x="1128.3046" y="-157.8" font-family="Times,serif" font-size="14.00" fill="#000000">bf</text>
</g>
<!-- dd&#45;&gt;bf -->
<g id="edge44" class="edge">
<title>dd-&gt;bf</title>
<path fill="none" stroke="#000000" d="M1142.608,-216.2022C1140.507,-208.2406 1137.9807,-198.6671 1135.6396,-189.7957"/>
<polygon fill="#000000" stroke="#000000" points="1138.9489,-188.6185 1133.0131,-179.8425 1132.1806,-190.4046 1138.9489,-188.6185"/>
</g>
<!-- bf&#45;&gt;mf -->
<g id="edge68" class="edge">
<title>bf-&gt;mf</title>
<path fill="none" stroke="#000000" d="M1121.0195,-179.384C1110.5002,-206.1035 1092.3046,-259.0997 1092.3046,-306 1092.3046,-522 1092.3046,-522 1092.3046,-522 1092.3046,-573.9165 1136.8517,-620.3877 1166.7763,-645.748"/>
<polygon fill="#000000" stroke="#000000" points="1164.8324,-648.6809 1174.7797,-652.3281 1169.278,-643.2737 1164.8324,-648.6809"/>
</g>
<!-- vx -->
<g id="node51" class="node">
<title>vx</title>
<ellipse fill="none" stroke="#000000" cx="1128.3046" cy="-90" rx="27" ry="18"/>
<text text-anchor="middle" x="1128.3046" y="-85.8" font-family="Times,serif" font-size="14.00" fill="#000000">vx</text>
</g>
<!-- bf&#45;&gt;vx -->
<g id="edge69" class="edge">
<title>bf-&gt;vx</title>
<path fill="none" stroke="#000000" d="M1128.3046,-143.8314C1128.3046,-136.131 1128.3046,-126.9743 1128.3046,-118.4166"/>
<polygon fill="#000000" stroke="#000000" points="1131.8047,-118.4132 1128.3046,-108.4133 1124.8047,-118.4133 1131.8047,-118.4132"/>
</g>
<!-- jp&#45;&gt;mf -->
<g id="edge102" class="edge">
<title>jp-&gt;mf</title>
<path fill="none" stroke="#000000" d="M1181.7822,-324.1045C1176.8028,-351.3176 1168.3046,-404.4358 1168.3046,-450 1168.3046,-522 1168.3046,-522 1168.3046,-522 1168.3046,-562.9036 1178.2177,-609.3924 1185.5593,-638.2132"/>
<polygon fill="#000000" stroke="#000000" points="1182.2009,-639.2048 1188.1246,-647.9889 1188.9717,-637.428 1182.2009,-639.2048"/>
</g>
<!-- jp&#45;&gt;dd -->
<g id="edge103" class="edge">
<title>jp-&gt;dd</title>
<path fill="none" stroke="#000000" d="M1176.2992,-288.937C1171.8219,-280.4537 1166.3095,-270.0092 1161.2976,-260.513"/>
<polygon fill="#000000" stroke="#000000" points="1164.2724,-258.6509 1156.5094,-251.4407 1158.0817,-261.9182 1164.2724,-258.6509"/>
</g>
<!-- bj&#45;&gt;ph -->
<g id="edge46" class="edge">
<title>bj-&gt;ph</title>
<path fill="none" stroke="#000000" d="M584.2379,-467.674C580.4657,-478.0654 576.2157,-491.5654 574.3046,-504 561.6738,-586.1842 574.7977,-617.9483 625.3046,-684 637.5984,-700.0774 656.0619,-713.1623 671.9394,-722.4232"/>
<polygon fill="#000000" stroke="#000000" points="670.4836,-725.6186 680.9229,-727.4277 673.8903,-719.5035 670.4836,-725.6186"/>
</g>
<!-- bj&#45;&gt;nn -->
<g id="edge47" class="edge">
<title>bj-&gt;nn</title>
<path fill="none" stroke="#000000" d="M591.3046,-431.8314C591.3046,-424.131 591.3046,-414.9743 591.3046,-406.4166"/>
<polygon fill="#000000" stroke="#000000" points="594.8047,-406.4132 591.3046,-396.4133 587.8047,-406.4133 594.8047,-406.4132"/>
</g>
<!-- nn&#45;&gt;nh -->
<g id="edge101" class="edge">
<title>nn-&gt;nh</title>
<path fill="none" stroke="#000000" d="M584.2846,-360.5708C580.9608,-352.3187 576.9149,-342.2738 573.2047,-333.0623"/>
<polygon fill="#000000" stroke="#000000" points="576.3433,-331.4864 569.3606,-323.5182 569.8502,-334.1018 576.3433,-331.4864"/>
</g>
<!-- sk -->
<g id="node48" class="node">
<title>sk</title>
<ellipse fill="none" stroke="#000000" cx="1091.3046" cy="-18" rx="27" ry="18"/>
<text text-anchor="middle" x="1091.3046" y="-13.8" font-family="Times,serif" font-size="14.00" fill="#000000">sk</text>
</g>
<!-- sk&#45;&gt;mf -->
<g id="edge48" class="edge">
<title>sk-&gt;mf</title>
<path fill="none" stroke="#000000" d="M1083.8171,-35.3645C1073.0056,-62.0586 1054.3046,-115.022 1054.3046,-162 1054.3046,-522 1054.3046,-522 1054.3046,-522 1054.3046,-583.5707 1120.9008,-628.8974 1161.9004,-650.9685"/>
<polygon fill="#000000" stroke="#000000" points="1160.4868,-654.1786 1170.9719,-655.6996 1163.7238,-647.972 1160.4868,-654.1786"/>
</g>
<!-- mt&#45;&gt;zp -->
<g id="edge51" class="edge">
<title>mt-&gt;zp</title>
<path fill="none" stroke="#000000" d="M1633.6199,-240.6828C1704.4184,-260.1113 1899.3046,-318.9545 1899.3046,-378 1899.3046,-810 1899.3046,-810 1899.3046,-810 1899.3046,-912.0099 1745.5135,-942.1889 1672.6917,-950.761"/>
<polygon fill="#000000" stroke="#000000" points="1672.1204,-947.3026 1662.5629,-951.8749 1672.8856,-954.2607 1672.1204,-947.3026"/>
</g>
<!-- mt&#45;&gt;xg -->
<g id="edge52" class="edge">
<title>mt-&gt;xg</title>
<path fill="none" stroke="#000000" d="M1587.9937,-222.1107C1567.9635,-210.3857 1537.145,-192.3456 1514.4936,-179.0862"/>
<polygon fill="#000000" stroke="#000000" points="1516.0441,-175.9383 1505.6458,-173.907 1512.5078,-181.9794 1516.0441,-175.9383"/>
</g>
<!-- hf&#45;&gt;jn -->
<g id="edge106" class="edge">
<title>hf-&gt;jn</title>
<path fill="none" stroke="#000000" d="M210.4276,-465.7156C218.5581,-475.8532 227.9947,-489.7653 232.3046,-504 246.0018,-549.2385 239.9978,-604.8728 234.2522,-637.7733"/>
<polygon fill="#000000" stroke="#000000" points="230.7355,-637.5392 232.3424,-648.0115 237.6168,-638.8229 230.7355,-637.5392"/>
</g>
<!-- tl -->
<g id="node59" class="node">
<title>tl</title>
<ellipse fill="none" stroke="#000000" cx="177.3046" cy="-378" rx="27" ry="18"/>
<text text-anchor="middle" x="177.3046" y="-373.8" font-family="Times,serif" font-size="14.00" fill="#000000">tl</text>
</g>
<!-- hf&#45;&gt;tl -->
<g id="edge107" class="edge">
<title>hf-&gt;tl</title>
<path fill="none" stroke="#000000" d="M191.608,-432.2022C189.507,-424.2406 186.9807,-414.6671 184.6396,-405.7957"/>
<polygon fill="#000000" stroke="#000000" points="187.9489,-404.6185 182.0131,-395.8425 181.1806,-406.4046 187.9489,-404.6185"/>
</g>
<!-- vx&#45;&gt;mf -->
<g id="edge54" class="edge">
<title>vx-&gt;mf</title>
<path fill="none" stroke="#000000" d="M1155.5629,-92.1251C1223.0145,-99.0164 1392.3046,-126.9732 1392.3046,-234 1392.3046,-522 1392.3046,-522 1392.3046,-522 1392.3046,-562.8816 1400.9821,-581.9123 1373.3046,-612 1353.8989,-633.0956 1276.3334,-650.6721 1229.5885,-659.622"/>
<polygon fill="#000000" stroke="#000000" points="1228.7345,-656.221 1219.5499,-661.5024 1230.0234,-663.1013 1228.7345,-656.221"/>
</g>
<!-- vx&#45;&gt;sk -->
<g id="edge55" class="edge">
<title>vx-&gt;sk</title>
<path fill="none" stroke="#000000" d="M1119.5362,-72.937C1115.1767,-64.4537 1109.8094,-54.0092 1104.9294,-44.513"/>
<polygon fill="#000000" stroke="#000000" points="1107.951,-42.7352 1100.2672,-35.4407 1101.7249,-45.9348 1107.951,-42.7352"/>
</g>
<!-- br -->
<g id="node52" class="node">
<title>br</title>
<ellipse fill="none" stroke="#000000" cx="177.3046" cy="-306" rx="27" ry="18"/>
<text text-anchor="middle" x="177.3046" y="-301.8" font-family="Times,serif" font-size="14.00" fill="#000000">br</text>
</g>
<!-- br&#45;&gt;jn -->
<g id="edge58" class="edge">
<title>br-&gt;jn</title>
<path fill="none" stroke="#000000" d="M163.1817,-321.7156C155.0512,-331.8532 145.6146,-345.7653 141.3046,-360 118.093,-436.663 137.0151,-461.0102 150.3046,-540 155.8149,-572.7513 153.0581,-583.6174 170.3046,-612 178.3533,-625.2457 190.5502,-637.2909 201.6856,-646.6271"/>
<polygon fill="#000000" stroke="#000000" points="199.5424,-649.3948 209.5319,-652.925 203.9241,-643.9358 199.5424,-649.3948"/>
</g>
<!-- fk -->
<g id="node53" class="node">
<title>fk</title>
<ellipse fill="none" stroke="#000000" cx="272.3046" cy="-234" rx="27" ry="18"/>
<text text-anchor="middle" x="272.3046" y="-229.8" font-family="Times,serif" font-size="14.00" fill="#000000">fk</text>
</g>
<!-- br&#45;&gt;fk -->
<g id="edge59" class="edge">
<title>br-&gt;fk</title>
<path fill="none" stroke="#000000" d="M195.1734,-292.4574C209.5452,-281.565 229.9427,-266.1059 246.1523,-253.8207"/>
<polygon fill="#000000" stroke="#000000" points="248.3374,-256.5564 254.193,-247.7267 244.1092,-250.9776 248.3374,-256.5564"/>
</g>
<!-- fk&#45;&gt;jn -->
<g id="edge71" class="edge">
<title>fk-&gt;jn</title>
<path fill="none" stroke="#000000" d="M275.8271,-252.1045C280.8065,-279.3176 289.3046,-332.4358 289.3046,-378 289.3046,-522 289.3046,-522 289.3046,-522 289.3046,-566.6394 264.1436,-613.3366 246.1406,-641.0358"/>
<polygon fill="#000000" stroke="#000000" points="243.0139,-639.4145 240.3563,-649.6706 248.8296,-643.3104 243.0139,-639.4145"/>
</g>
<!-- gk -->
<g id="node57" class="node">
<title>gk</title>
<ellipse fill="none" stroke="#000000" cx="291.3046" cy="-162" rx="27" ry="18"/>
<text text-anchor="middle" x="291.3046" y="-157.8" font-family="Times,serif" font-size="14.00" fill="#000000">gk</text>
</g>
<!-- fk&#45;&gt;gk -->
<g id="edge72" class="edge">
<title>fk-&gt;gk</title>
<path fill="none" stroke="#000000" d="M277.0013,-216.2022C279.1023,-208.2406 281.6286,-198.6671 283.9697,-189.7957"/>
<polygon fill="#000000" stroke="#000000" points="287.4287,-190.4046 286.5962,-179.8425 280.6604,-188.6185 287.4287,-190.4046"/>
</g>
<!-- xj&#45;&gt;gq -->
<g id="edge60" class="edge">
<title>xj-&gt;gq</title>
<path fill="none" stroke="#000000" d="M983.9718,-579.0816C973.5536,-568.945 959.5968,-555.3654 947.91,-543.9944"/>
<polygon fill="#000000" stroke="#000000" points="950.2259,-541.3644 940.6178,-536.8993 945.3444,-546.3815 950.2259,-541.3644"/>
</g>
<!-- ps&#45;&gt;xz -->
<g id="edge87" class="edge">
<title>ps-&gt;xz</title>
<path fill="none" stroke="#000000" d="M810.7476,-656.8812C777.9046,-644.1677 718.2164,-621.0626 681.0573,-606.6784"/>
<polygon fill="#000000" stroke="#000000" points="682.2596,-603.3908 671.6704,-603.0448 679.7326,-609.9188 682.2596,-603.3908"/>
</g>
<!-- qs&#45;&gt;gq -->
<g id="edge65" class="edge">
<title>qs-&gt;gq</title>
<path fill="none" stroke="#000000" d="M908.6726,-648.0535C911.9153,-623.4774 917.7705,-579.1008 921.5973,-550.0974"/>
<polygon fill="#000000" stroke="#000000" points="925.0686,-550.5447 922.9069,-540.1727 918.1287,-549.6289 925.0686,-550.5447"/>
</g>
<!-- gk&#45;&gt;jn -->
<g id="edge93" class="edge">
<title>gk-&gt;jn</title>
<path fill="none" stroke="#000000" d="M298.5898,-179.384C309.1091,-206.1035 327.3046,-259.0997 327.3046,-306 327.3046,-522 327.3046,-522 327.3046,-522 327.3046,-573.5798 283.6397,-620.1615 254.3076,-645.6341"/>
<polygon fill="#000000" stroke="#000000" points="251.8539,-643.1248 246.4628,-652.2455 256.3649,-648.4774 251.8539,-643.1248"/>
</g>
<!-- gk&#45;&gt;xt -->
<g id="edge94" class="edge">
<title>gk-&gt;xt</title>
<path fill="none" stroke="#000000" d="M291.3046,-143.8314C291.3046,-136.131 291.3046,-126.9743 291.3046,-118.4166"/>
<polygon fill="#000000" stroke="#000000" points="294.8047,-118.4132 291.3046,-108.4133 287.8047,-118.4133 294.8047,-118.4132"/>
</g>
<!-- broadcaster -->
<g id="node58" class="node">
<title>broadcaster</title>
<ellipse fill="none" stroke="#000000" cx="951.3046" cy="-954" rx="55.5753" ry="18"/>
<text text-anchor="middle" x="951.3046" y="-949.8" font-family="Times,serif" font-size="14.00" fill="#000000">broadcaster</text>
</g>
<!-- broadcaster&#45;&gt;fv -->
<g id="edge89" class="edge">
<title>broadcaster-&gt;fv</title>
<path fill="none" stroke="#000000" d="M1003.3282,-947.4516C1117.5865,-933.0694 1388.0981,-899.019 1486.6096,-886.619"/>
<polygon fill="#000000" stroke="#000000" points="1487.1925,-890.0733 1496.6771,-885.3517 1486.3183,-883.1281 1487.1925,-890.0733"/>
</g>
<!-- broadcaster&#45;&gt;cr -->
<g id="edge90" class="edge">
<title>broadcaster-&gt;cr</title>
<path fill="none" stroke="#000000" d="M895.7879,-953.195C756.6991,-950.5918 396.4435,-940.0673 284.3046,-900 218.1291,-876.3554 154.3046,-880.2728 154.3046,-810 154.3046,-810 154.3046,-810 154.3046,-738 154.3046,-686.7523 111.5218,-640.0616 82.7823,-614.4783"/>
<polygon fill="#000000" stroke="#000000" points="84.9507,-611.7264 75.0959,-607.836 80.3737,-617.0227 84.9507,-611.7264"/>
</g>
<!-- broadcaster&#45;&gt;rt -->
<g id="edge91" class="edge">
<title>broadcaster-&gt;rt</title>
<path fill="none" stroke="#000000" d="M990.4575,-941.1278C1031.9943,-927.4719 1096.951,-906.1163 1136.3811,-893.1529"/>
<polygon fill="#000000" stroke="#000000" points="1137.659,-896.4172 1146.0656,-889.969 1135.4727,-889.7674 1137.659,-896.4172"/>
</g>
<!-- broadcaster&#45;&gt;tk -->
<g id="edge92" class="edge">
<title>broadcaster-&gt;tk</title>
<path fill="none" stroke="#000000" d="M912.1887,-940.9613C871.4547,-927.3833 808.2829,-906.3261 769.485,-893.3934"/>
<polygon fill="#000000" stroke="#000000" points="770.2948,-889.9741 759.7011,-890.1322 768.0812,-896.6149 770.2948,-889.9741"/>
</g>
<!-- tl&#45;&gt;jn -->
<g id="edge97" class="edge">
<title>tl-&gt;jn</title>
<path fill="none" stroke="#000000" d="M170.2379,-395.674C166.4657,-406.0654 162.2157,-419.5654 160.3046,-432 153.0132,-479.443 148.5482,-493.462 160.3046,-540 169.9021,-577.9917 193.4646,-616.972 210.1539,-641.3172"/>
<polygon fill="#000000" stroke="#000000" points="207.3488,-643.4133 215.953,-649.5955 213.0821,-639.397 207.3488,-643.4133"/>
</g>
<!-- tl&#45;&gt;br -->
<g id="edge98" class="edge">
<title>tl-&gt;br</title>
<path fill="none" stroke="#000000" d="M177.3046,-359.8314C177.3046,-352.131 177.3046,-342.9743 177.3046,-334.4166"/>
<polygon fill="#000000" stroke="#000000" points="180.8047,-334.4132 177.3046,-324.4133 173.8047,-334.4133 180.8047,-334.4132"/>
</g>
<!-- button -->
<g id="node60" class="node">
<title>button</title>
<ellipse fill="none" stroke="#000000" cx="951.3046" cy="-1026" rx="35.9368" ry="18"/>
<text text-anchor="middle" x="951.3046" y="-1021.8" font-family="Times,serif" font-size="14.00" fill="#000000">button</text>
</g>
<!-- button&#45;&gt;broadcaster -->
<g id="edge110" class="edge">
<title>button-&gt;broadcaster</title>
<path fill="none" stroke="#000000" d="M951.3046,-1007.8314C951.3046,-1000.131 951.3046,-990.9743 951.3046,-982.4166"/>
<polygon fill="#000000" stroke="#000000" points="954.8047,-982.4132 951.3046,-972.4133 947.8047,-982.4133 954.8047,-982.4132"/>
</g>
</g>
</svg>